<svg width="32" height="32" viewBox="0 0 32 32" fill="none" xmlns="http://www.w3.org/2000/svg">
  <rect width="32" height="32" rx="8" fill="#E60023"/>
  <path d="M8 12C8 9.79086 9.79086 8 12 8H16V12C16 14.2091 14.2091 16 12 16H8V12Z" fill="white"/>
  <path d="M16 8H20C22.2091 8 24 9.79086 24 12V16H20C17.7909 16 16 14.2091 16 12V8Z" fill="white"/>
  <path d="M24 16V20C24 22.2091 22.2091 24 20 24H16V20C16 17.7909 17.7909 16 20 16H24Z" fill="white"/>
  <path d="M16 24H12C9.79086 24 8 22.2091 8 20V16H12C14.2091 16 16 17.7909 16 20V24Z" fill="white"/>
</svg>
